<svg width="43" height="43" viewBox="0 0 43 43" fill="none" xmlns="http://www.w3.org/2000/svg">
<g clip-path="url(#clip0_232_2446)" filter="url(#filter0_d_232_2446)">
<g clip-path="url(#paint0_diamond_232_2446_clip_path)" data-figma-skip-parse="true"><g transform="matrix(0 0.0045 -0.0045 0 21.5 12.25)"><rect x="0" y="0" width="1222.22" height="1222.22" fill="url(#paint0_diamond_232_2446)" opacity="1" shape-rendering="crispEdges"/><rect x="0" y="0" width="1222.22" height="1222.22" transform="scale(1 -1)" fill="url(#paint0_diamond_232_2446)" opacity="1" shape-rendering="crispEdges"/><rect x="0" y="0" width="1222.22" height="1222.22" transform="scale(-1 1)" fill="url(#paint0_diamond_232_2446)" opacity="1" shape-rendering="crispEdges"/><rect x="0" y="0" width="1222.22" height="1222.22" transform="scale(-1)" fill="url(#paint0_diamond_232_2446)" opacity="1" shape-rendering="crispEdges"/></g></g><path d="M26 12.25C26 14.7363 23.9863 16.75 21.5 16.75C19.0137 16.75 17 14.7363 17 12.25C17 9.76375 19.0137 7.75 21.5 7.75C23.9863 7.75 26 9.76375 26 12.25Z" data-figma-gradient-fill="{&#34;type&#34;:&#34;GRADIENT_DIAMOND&#34;,&#34;stops&#34;:[{&#34;color&#34;:{&#34;r&#34;:0.066666670143604279,&#34;g&#34;:0.46274510025978088,&#34;b&#34;:0.66666668653488159,&#34;a&#34;:1.0},&#34;position&#34;:0.14903846383094788},{&#34;color&#34;:{&#34;r&#34;:1.0,&#34;g&#34;:1.0,&#34;b&#34;:1.0,&#34;a&#34;:1.0},&#34;position&#34;:0.49519231915473938},{&#34;color&#34;:{&#34;r&#34;:0.16078431904315948,&#34;g&#34;:0.78039216995239258,&#34;b&#34;:0.82352942228317261,&#34;a&#34;:1.0},&#34;position&#34;:1.0}],&#34;stopsVar&#34;:[{&#34;color&#34;:{&#34;r&#34;:0.066666670143604279,&#34;g&#34;:0.46274510025978088,&#34;b&#34;:0.66666668653488159,&#34;a&#34;:1.0},&#34;position&#34;:0.14903846383094788},{&#34;color&#34;:{&#34;r&#34;:1.0,&#34;g&#34;:1.0,&#34;b&#34;:1.0,&#34;a&#34;:1.0},&#34;position&#34;:0.49519231915473938},{&#34;color&#34;:{&#34;r&#34;:0.16078431904315948,&#34;g&#34;:0.78039216995239258,&#34;b&#34;:0.82352942228317261,&#34;a&#34;:1.0},&#34;position&#34;:1.0}],&#34;transform&#34;:{&#34;m00&#34;:5.5109107042843573e-16,&#34;m01&#34;:-9.0,&#34;m02&#34;:26.0,&#34;m10&#34;:9.0,&#34;m11&#34;:5.5109107042843573e-16,&#34;m12&#34;:7.750},&#34;opacity&#34;:1.0,&#34;blendMode&#34;:&#34;NORMAL&#34;,&#34;visible&#34;:true}"/>
<g clip-path="url(#paint1_diamond_232_2446_clip_path)" data-figma-skip-parse="true"><g transform="matrix(0 0.0135 -0.0135 0 21.5 14.5)"><rect x="0" y="0" width="1074.07" height="1074.07" fill="url(#paint1_diamond_232_2446)" opacity="1" shape-rendering="crispEdges"/><rect x="0" y="0" width="1074.07" height="1074.07" transform="scale(1 -1)" fill="url(#paint1_diamond_232_2446)" opacity="1" shape-rendering="crispEdges"/><rect x="0" y="0" width="1074.07" height="1074.07" transform="scale(-1 1)" fill="url(#paint1_diamond_232_2446)" opacity="1" shape-rendering="crispEdges"/><rect x="0" y="0" width="1074.07" height="1074.07" transform="scale(-1)" fill="url(#paint1_diamond_232_2446)" opacity="1" shape-rendering="crispEdges"/></g></g><path fill-rule="evenodd" clip-rule="evenodd" d="M21.5 28C28.9588 28 35 21.9588 35 14.5C35 7.04125 28.9588 1 21.5 1C14.0412 1 8 7.04125 8 14.5C8 21.9588 14.0412 28 21.5 28ZM28.5538 24.67C31.7713 22.4313 33.875 18.7188 33.875 14.5C33.875 7.66 28.34 2.125 21.5 2.125C14.66 2.125 9.125 7.66 9.125 14.5C9.125 18.7188 11.2288 22.4313 14.4463 24.67C15.2394 23.185 17.7988 19 21.5 19C25.2012 19 27.755 23.185 28.5538 24.67Z" data-figma-gradient-fill="{&#34;type&#34;:&#34;GRADIENT_DIAMOND&#34;,&#34;stops&#34;:[{&#34;color&#34;:{&#34;r&#34;:0.066666670143604279,&#34;g&#34;:0.46274510025978088,&#34;b&#34;:0.66666668653488159,&#34;a&#34;:1.0},&#34;position&#34;:0.14903846383094788},{&#34;color&#34;:{&#34;r&#34;:1.0,&#34;g&#34;:1.0,&#34;b&#34;:1.0,&#34;a&#34;:1.0},&#34;position&#34;:0.49519231915473938},{&#34;color&#34;:{&#34;r&#34;:0.16078431904315948,&#34;g&#34;:0.78039216995239258,&#34;b&#34;:0.82352942228317261,&#34;a&#34;:1.0},&#34;position&#34;:1.0}],&#34;stopsVar&#34;:[{&#34;color&#34;:{&#34;r&#34;:0.066666670143604279,&#34;g&#34;:0.46274510025978088,&#34;b&#34;:0.66666668653488159,&#34;a&#34;:1.0},&#34;position&#34;:0.14903846383094788},{&#34;color&#34;:{&#34;r&#34;:1.0,&#34;g&#34;:1.0,&#34;b&#34;:1.0,&#34;a&#34;:1.0},&#34;position&#34;:0.49519231915473938},{&#34;color&#34;:{&#34;r&#34;:0.16078431904315948,&#34;g&#34;:0.78039216995239258,&#34;b&#34;:0.82352942228317261,&#34;a&#34;:1.0},&#34;position&#34;:1.0}],&#34;transform&#34;:{&#34;m00&#34;:1.6532732112853072e-15,&#34;m01&#34;:-27.0,&#34;m02&#34;:35.0,&#34;m10&#34;:27.0,&#34;m11&#34;:1.6532732112853072e-15,&#34;m12&#34;:1.0},&#34;opacity&#34;:1.0,&#34;blendMode&#34;:&#34;NORMAL&#34;,&#34;visible&#34;:true}"/>
</g>
<defs>
<filter id="filter0_d_232_2446" x="0.0999999" y="0.0999999" width="42.8" height="42.8" filterUnits="userSpaceOnUse" color-interpolation-filters="sRGB">
<feFlood flood-opacity="0" result="BackgroundImageFix"/>
<feColorMatrix in="SourceAlpha" type="matrix" values="0 0 0 0 0 0 0 0 0 0 0 0 0 0 0 0 0 0 127 0" result="hardAlpha"/>
<feOffset dy="7"/>
<feGaussianBlur stdDeviation="3.95"/>
<feComposite in2="hardAlpha" operator="out"/>
<feColorMatrix type="matrix" values="0 0 0 0 0.111289 0 0 0 0 0.542345 0 0 0 0 0.608661 0 0 0 0.25 0"/>
<feBlend mode="normal" in2="BackgroundImageFix" result="effect1_dropShadow_232_2446"/>
<feBlend mode="normal" in="SourceGraphic" in2="effect1_dropShadow_232_2446" result="shape"/>
</filter>
<clipPath id="paint0_diamond_232_2446_clip_path"><path d="M26 12.25C26 14.7363 23.9863 16.75 21.5 16.75C19.0137 16.75 17 14.7363 17 12.25C17 9.76375 19.0137 7.75 21.5 7.75C23.9863 7.75 26 9.76375 26 12.25Z"/></clipPath><clipPath id="paint1_diamond_232_2446_clip_path"><path fill-rule="evenodd" clip-rule="evenodd" d="M21.5 28C28.9588 28 35 21.9588 35 14.5C35 7.04125 28.9588 1 21.5 1C14.0412 1 8 7.04125 8 14.5C8 21.9588 14.0412 28 21.5 28ZM28.5538 24.67C31.7713 22.4313 33.875 18.7188 33.875 14.5C33.875 7.66 28.34 2.125 21.5 2.125C14.66 2.125 9.125 7.66 9.125 14.5C9.125 18.7188 11.2288 22.4313 14.4463 24.67C15.2394 23.185 17.7988 19 21.5 19C25.2012 19 27.755 23.185 28.5538 24.67Z"/></clipPath><linearGradient id="paint0_diamond_232_2446" x1="0" y1="0" x2="500" y2="500" gradientUnits="userSpaceOnUse">
<stop offset="0.149038" stop-color="#1176AA"/>
<stop offset="0.495192" stop-color="white"/>
<stop offset="1" stop-color="#29C7D2"/>
</linearGradient>
<linearGradient id="paint1_diamond_232_2446" x1="0" y1="0" x2="500" y2="500" gradientUnits="userSpaceOnUse">
<stop offset="0.149038" stop-color="#1176AA"/>
<stop offset="0.495192" stop-color="white"/>
<stop offset="1" stop-color="#29C7D2"/>
</linearGradient>
<clipPath id="clip0_232_2446">
<rect width="27" height="27" fill="white" transform="translate(8 1)"/>
</clipPath>
</defs>
</svg>
