<svg width="27" height="27" viewBox="0 0 27 27" fill="none" xmlns="http://www.w3.org/2000/svg">
<g clip-path="url(#paint0_diamond_232_2449_clip_path)" data-figma-skip-parse="true"><g transform="matrix(0 0.01125 -0.01071 0 13.5 13.5)"><rect x="0" y="0" width="1088.89" height="1093.37" fill="url(#paint0_diamond_232_2449)" opacity="1" shape-rendering="crispEdges"/><rect x="0" y="0" width="1088.89" height="1093.37" transform="scale(1 -1)" fill="url(#paint0_diamond_232_2449)" opacity="1" shape-rendering="crispEdges"/><rect x="0" y="0" width="1088.89" height="1093.37" transform="scale(-1 1)" fill="url(#paint0_diamond_232_2449)" opacity="1" shape-rendering="crispEdges"/><rect x="0" y="0" width="1088.89" height="1093.37" transform="scale(-1)" fill="url(#paint0_diamond_232_2449)" opacity="1" shape-rendering="crispEdges"/></g></g><path d="M12.1782 24.75C11.6719 24.75 11.2362 24.5812 10.8709 24.2437C10.5057 23.9062 10.2852 23.4938 10.2094 23.0063L9.95629 21.15C9.71254 21.0562 9.48304 20.9438 9.26779 20.8125C9.05254 20.6812 8.84141 20.5406 8.63441 20.3906L6.89066 21.1219C6.42191 21.3281 5.95316 21.3469 5.48441 21.1781C5.01566 21.0094 4.65004 20.7094 4.38754 20.2781L3.06566 17.9719C2.80316 17.5406 2.72816 17.0813 2.84066 16.5938C2.95316 16.1062 3.20629 15.7031 3.60004 15.3844L5.09066 14.2594C5.07191 14.1281 5.06254 14.0014 5.06254 13.8791V13.1197C5.06254 12.9982 5.07191 12.8719 5.09066 12.7406L3.60004 11.6156C3.20629 11.2969 2.95316 10.8938 2.84066 10.4062C2.72816 9.91875 2.80316 9.45937 3.06566 9.02812L4.38754 6.72187C4.65004 6.29062 5.01566 5.99063 5.48441 5.82188C5.95316 5.65313 6.42191 5.67187 6.89066 5.87812L8.63441 6.60938C8.84066 6.45937 9.05629 6.31875 9.28129 6.1875C9.50629 6.05625 9.73129 5.94375 9.95629 5.85L10.2094 3.99375C10.2844 3.50625 10.5049 3.09375 10.8709 2.75625C11.2369 2.41875 11.6727 2.25 12.1782 2.25H14.8219C15.3282 2.25 15.7643 2.41875 16.1303 2.75625C16.4963 3.09375 16.7164 3.50625 16.7907 3.99375L17.0438 5.85C17.2875 5.94375 17.5174 6.05625 17.7334 6.1875C17.9494 6.31875 18.1602 6.45937 18.3657 6.60938L20.1094 5.87812C20.5782 5.67187 21.0469 5.65313 21.5157 5.82188C21.9844 5.99063 22.35 6.29062 22.6125 6.72187L23.9344 9.02812C24.1969 9.45937 24.2719 9.91875 24.1594 10.4062C24.0469 10.8938 23.7938 11.2969 23.4 11.6156L21.9094 12.7406C21.9282 12.8719 21.9375 12.9986 21.9375 13.1209V13.8791C21.9375 14.0014 21.9188 14.1281 21.8813 14.2594L23.3719 15.3844C23.7657 15.7031 24.0188 16.1062 24.1313 16.5938C24.2438 17.0813 24.1688 17.5406 23.9063 17.9719L22.5563 20.2781C22.2938 20.7094 21.9282 21.0094 21.4594 21.1781C20.9907 21.3469 20.5219 21.3281 20.0532 21.1219L18.3657 20.3906C18.1594 20.5406 17.9438 20.6812 17.7188 20.8125C17.4938 20.9438 17.2688 21.0562 17.0438 21.15L16.7907 23.0063C16.7157 23.4938 16.4955 23.9062 16.1303 24.2437C15.765 24.5812 15.3289 24.75 14.8219 24.75H12.1782ZM13.5563 17.4375C14.6438 17.4375 15.5719 17.0531 16.3407 16.2844C17.1094 15.5156 17.4938 14.5875 17.4938 13.5C17.4938 12.4125 17.1094 11.4844 16.3407 10.7156C15.5719 9.94687 14.6438 9.5625 13.5563 9.5625C12.45 9.5625 11.517 9.94687 10.7573 10.7156C9.99754 11.4844 9.61804 12.4125 9.61879 13.5C9.61954 14.5875 9.99941 15.5156 10.7584 16.2844C11.5174 17.0531 12.45 17.4375 13.5563 17.4375Z" data-figma-gradient-fill="{&#34;type&#34;:&#34;GRADIENT_DIAMOND&#34;,&#34;stops&#34;:[{&#34;color&#34;:{&#34;r&#34;:0.0,&#34;g&#34;:0.94999998807907104,&#34;b&#34;:1.0,&#34;a&#34;:1.0},&#34;position&#34;:0.0},{&#34;color&#34;:{&#34;r&#34;:1.0,&#34;g&#34;:1.0,&#34;b&#34;:1.0,&#34;a&#34;:1.0},&#34;position&#34;:0.43269231915473938},{&#34;color&#34;:{&#34;r&#34;:0.0,&#34;g&#34;:0.56999999284744263,&#34;b&#34;:0.60000002384185791,&#34;a&#34;:1.0},&#34;position&#34;:1.0}],&#34;stopsVar&#34;:[{&#34;color&#34;:{&#34;r&#34;:0.0,&#34;g&#34;:0.94999998807907104,&#34;b&#34;:1.0,&#34;a&#34;:1.0},&#34;position&#34;:0.0},{&#34;color&#34;:{&#34;r&#34;:1.0,&#34;g&#34;:1.0,&#34;b&#34;:1.0,&#34;a&#34;:1.0},&#34;position&#34;:0.43269231915473938},{&#34;color&#34;:{&#34;r&#34;:0.0,&#34;g&#34;:0.56999999284744263,&#34;b&#34;:0.60000002384185791,&#34;a&#34;:1.0},&#34;position&#34;:1.0}],&#34;transform&#34;:{&#34;m00&#34;:1.3115968492636307e-15,&#34;m01&#34;:-21.420001983642578,&#34;m02&#34;:24.210041046142578,&#34;m10&#34;:22.50,&#34;m11&#34;:1.3777276760710893e-15,&#34;m12&#34;:2.250},&#34;opacity&#34;:1.0,&#34;blendMode&#34;:&#34;NORMAL&#34;,&#34;visible&#34;:true}"/>
<defs>
<clipPath id="paint0_diamond_232_2449_clip_path"><path d="M12.1782 24.75C11.6719 24.75 11.2362 24.5812 10.8709 24.2437C10.5057 23.9062 10.2852 23.4938 10.2094 23.0063L9.95629 21.15C9.71254 21.0562 9.48304 20.9438 9.26779 20.8125C9.05254 20.6812 8.84141 20.5406 8.63441 20.3906L6.89066 21.1219C6.42191 21.3281 5.95316 21.3469 5.48441 21.1781C5.01566 21.0094 4.65004 20.7094 4.38754 20.2781L3.06566 17.9719C2.80316 17.5406 2.72816 17.0813 2.84066 16.5938C2.95316 16.1062 3.20629 15.7031 3.60004 15.3844L5.09066 14.2594C5.07191 14.1281 5.06254 14.0014 5.06254 13.8791V13.1197C5.06254 12.9982 5.07191 12.8719 5.09066 12.7406L3.60004 11.6156C3.20629 11.2969 2.95316 10.8938 2.84066 10.4062C2.72816 9.91875 2.80316 9.45937 3.06566 9.02812L4.38754 6.72187C4.65004 6.29062 5.01566 5.99063 5.48441 5.82188C5.95316 5.65313 6.42191 5.67187 6.89066 5.87812L8.63441 6.60938C8.84066 6.45937 9.05629 6.31875 9.28129 6.1875C9.50629 6.05625 9.73129 5.94375 9.95629 5.85L10.2094 3.99375C10.2844 3.50625 10.5049 3.09375 10.8709 2.75625C11.2369 2.41875 11.6727 2.25 12.1782 2.25H14.8219C15.3282 2.25 15.7643 2.41875 16.1303 2.75625C16.4963 3.09375 16.7164 3.50625 16.7907 3.99375L17.0438 5.85C17.2875 5.94375 17.5174 6.05625 17.7334 6.1875C17.9494 6.31875 18.1602 6.45937 18.3657 6.60938L20.1094 5.87812C20.5782 5.67187 21.0469 5.65313 21.5157 5.82188C21.9844 5.99063 22.35 6.29062 22.6125 6.72187L23.9344 9.02812C24.1969 9.45937 24.2719 9.91875 24.1594 10.4062C24.0469 10.8938 23.7938 11.2969 23.4 11.6156L21.9094 12.7406C21.9282 12.8719 21.9375 12.9986 21.9375 13.1209V13.8791C21.9375 14.0014 21.9188 14.1281 21.8813 14.2594L23.3719 15.3844C23.7657 15.7031 24.0188 16.1062 24.1313 16.5938C24.2438 17.0813 24.1688 17.5406 23.9063 17.9719L22.5563 20.2781C22.2938 20.7094 21.9282 21.0094 21.4594 21.1781C20.9907 21.3469 20.5219 21.3281 20.0532 21.1219L18.3657 20.3906C18.1594 20.5406 17.9438 20.6812 17.7188 20.8125C17.4938 20.9438 17.2688 21.0562 17.0438 21.15L16.7907 23.0063C16.7157 23.4938 16.4955 23.9062 16.1303 24.2437C15.765 24.5812 15.3289 24.75 14.8219 24.75H12.1782ZM13.5563 17.4375C14.6438 17.4375 15.5719 17.0531 16.3407 16.2844C17.1094 15.5156 17.4938 14.5875 17.4938 13.5C17.4938 12.4125 17.1094 11.4844 16.3407 10.7156C15.5719 9.94687 14.6438 9.5625 13.5563 9.5625C12.45 9.5625 11.517 9.94687 10.7573 10.7156C9.99754 11.4844 9.61804 12.4125 9.61879 13.5C9.61954 14.5875 9.99941 15.5156 10.7584 16.2844C11.5174 17.0531 12.45 17.4375 13.5563 17.4375Z"/></clipPath><linearGradient id="paint0_diamond_232_2449" x1="0" y1="0" x2="500" y2="500" gradientUnits="userSpaceOnUse">
<stop stop-color="#00F2FF"/>
<stop offset="0.432692" stop-color="white"/>
<stop offset="1" stop-color="#009199"/>
</linearGradient>
</defs>
</svg>
